<svg xmlns="http://www.w3.org/2000/svg" width="25" height="25" viewBox="0 0 25 25"><g transform="translate(-0.449 0)"><path d="M25.385,7.35A9.134,9.134,0,0,0,24.8,4.317,6.4,6.4,0,0,0,21.145.659,9.162,9.162,0,0,0,18.112.078C16.773.015,16.348,0,12.953,0S9.134.015,7.8.073A9.141,9.141,0,0,0,4.767.654,6.1,6.1,0,0,0,2.549,2.1,6.155,6.155,0,0,0,1.108,4.312,9.158,9.158,0,0,0,.527,7.345C.463,8.683.449,9.108.449,12.5s.015,3.819.073,5.152A9.133,9.133,0,0,0,1.1,20.688a6.4,6.4,0,0,0,3.659,3.658,9.163,9.163,0,0,0,3.033.581c1.333.059,1.758.073,5.153.073s3.82-.014,5.153-.073a9.136,9.136,0,0,0,3.033-.581,6.4,6.4,0,0,0,3.659-3.658,9.164,9.164,0,0,0,.581-3.033c.059-1.333.073-1.758.073-5.152s0-3.819-.064-5.152ZM23.133,17.557a6.851,6.851,0,0,1-.43,2.32,4.147,4.147,0,0,1-2.374,2.374,6.879,6.879,0,0,1-2.32.43c-1.319.059-1.714.073-5.051.073s-3.737-.014-5.051-.073a6.851,6.851,0,0,1-2.32-.43,3.848,3.848,0,0,1-1.436-.933,3.887,3.887,0,0,1-.933-1.436,6.877,6.877,0,0,1-.43-2.32c-.059-1.319-.073-1.714-.073-5.05s.015-3.736.073-5.05a6.848,6.848,0,0,1,.43-2.32,3.8,3.8,0,0,1,.938-1.436,3.882,3.882,0,0,1,1.436-.933,6.884,6.884,0,0,1,2.32-.43c1.319-.059,1.715-.073,5.051-.073s3.737.015,5.051.073a6.855,6.855,0,0,1,2.32.43,3.845,3.845,0,0,1,1.436.933A3.886,3.886,0,0,1,22.7,5.143a6.879,6.879,0,0,1,.43,2.32c.059,1.319.073,1.714.073,5.05s-.015,3.726-.073,5.045Zm0,0" transform="translate(0 0)" fill="#fff"/><path d="M131.372,124.5a6.422,6.422,0,1,0,6.423,6.422A6.424,6.424,0,0,0,131.372,124.5Zm0,10.588a4.166,4.166,0,1,1,4.167-4.166A4.167,4.167,0,0,1,131.372,135.088Zm0,0" transform="translate(-118.419 -118.42)" fill="#fff"/><path d="M365.449,90.1a1.5,1.5,0,1,1-1.5-1.5A1.5,1.5,0,0,1,365.449,90.1Zm0,0" transform="translate(-344.318 -84.275)" fill="#fff"/></g></svg>