<svg xmlns="http://www.w3.org/2000/svg" width="30px" height="30px" version="1.0" fill-rule="evenodd" viewBox="0 0 6320 5110">
  <path fill="#1D1D1B" d="M5120 920l0 0 -1560 1830 -400 -400 -400 400 -1560 -1830 0 0 0 0 1550 970 0 0 -750 -970 0 0 0 0 1160 720 1160 -720 0 0 0 0 -750 970 0 0 1550 -970 0 0zm180 -920l1020 1170c0,0 -2850,3570 -3140,3930 0,0 0,0 0,10l2820 -3930 -870 -910 670 910 -2630 3930c0,0 -10,0 -10,0 -10,0 -10,0 -20,0l-2620 -3930 670 -910 -870 910 2820 3930c0,-10 0,-10 0,-10 -290,-360 -3140,-3930 -3140,-3930l1020 -1170 4280 0z"/>
</svg>
